<svg width="2500" height="1018" viewBox="0 0 2500 1018" fill="none" xmlns="http://www.w3.org/2000/svg">
<g clip-path="url(#clip0_2013_841)">
<g filter="url(#filter0_i_2013_841)">
<mask id="mask0_2013_841" style="mask-type:alpha" maskUnits="userSpaceOnUse" x="0" y="0" width="2500" height="1018">
<path d="M2361.35 793.77V668.202L2355.74 644.658V430.52C2355.74 384.927 2342.29 349.798 2315.39 325.133C2289.24 299.72 2252.99 278.622 2199.94 278.622C2164.82 278.622 2121.98 281.14 2072.48 308.272L2114.43 208.411C2114.43 208.411 2140.44 193.959 2208.92 193.959C2277.4 193.959 2353.13 213.766 2397.21 253.38C2441.3 292.993 2463.34 353.535 2463.34 435.005V741.823C2463.34 741.823 2461.7 766.159 2473.99 778.746C2486.28 791.334 2500 793.77 2500 793.77H2361.35ZM2166.32 800.497C2122.24 800.497 2083.38 793.023 2049.76 778.074C2016.88 763.126 1991.48 742.572 1973.54 716.411C1955.61 689.504 1946.64 659.233 1946.64 625.599C1946.64 593.46 1954.12 564.31 1969.06 538.15C1984.75 511.99 2009.78 491.062 2044.16 475.366C2079.27 459.67 2126.35 451.822 2185.38 451.822H2373.68V529.181H2189.86C2136.06 529.181 2099.82 538.15 2081.14 556.088C2062.46 574.026 2053.12 595.702 2053.12 621.114C2053.12 650.264 2064.7 673.808 2087.87 691.746C2111.03 708.937 2143.16 717.533 2184.26 717.533C2224.61 717.533 2259.73 708.563 2289.61 690.625C2320.25 672.687 2342.29 646.527 2355.74 612.145L2377.04 686.141C2362.84 721.27 2337.81 749.298 2301.94 770.226C2266.08 790.407 2220.87 800.497 2166.32 800.497Z" fill="white"/>
<path d="M1530.28 1018C1501.88 1018 1474.24 1013.14 1447.34 1003.42C1420.44 994.456 1397.27 981.002 1377.85 963.064L1423.8 882.341C1438.74 896.542 1455.18 907.38 1473.12 914.854C1491.05 922.329 1510.1 926.066 1530.28 926.066C1556.43 926.066 1578.1 919.339 1595.29 905.885C1612.47 892.432 1628.54 868.514 1643.48 834.132L1680.47 752.289L1691.68 738.835L1924.81 199.565H2030.16L1742.11 853.192C1724.93 895.048 1705.5 927.934 1683.83 951.852C1662.91 975.77 1639.74 992.587 1614.34 1002.3C1588.93 1012.77 1560.91 1018 1530.28 1018ZM1671.5 812.83L1423.65 251.751C1423.65 251.751 1417.78 238.324 1402.68 222.38C1387.58 206.436 1361.57 199.565 1361.57 199.565H1512.35L1743.23 728.745L1671.5 812.83Z" fill="white"/>
<path d="M1106.66 800.497C1046.88 800.497 993.827 787.417 947.5 761.257C901.173 735.097 864.56 699.221 837.66 653.627C810.76 607.287 797.311 554.967 797.311 496.667C797.311 437.621 810.76 385.301 837.66 339.708C864.56 294.114 901.173 258.612 947.5 233.199C993.827 207.039 1046.88 193.959 1106.66 193.959C1165.69 193.959 1218.36 207.039 1264.69 233.199C1311.77 258.612 1348.38 294.114 1374.53 339.708C1401.43 384.553 1414.88 436.873 1414.88 496.667C1414.88 555.714 1401.43 608.034 1374.53 653.627C1348.38 699.221 1311.77 735.097 1264.69 761.257C1218.36 787.417 1165.69 800.497 1106.66 800.497ZM1106.66 706.321C1144.76 706.321 1178.76 697.726 1208.65 680.535C1239.29 663.344 1263.2 639.053 1280.38 607.661C1297.57 575.521 1306.16 538.523 1306.16 496.667C1306.16 454.064 1297.57 417.44 1280.38 386.796C1263.2 355.404 1239.29 331.112 1208.65 313.921C1178.76 296.73 1144.76 288.135 1106.66 288.135C1068.55 288.135 1034.55 296.73 1004.66 313.921C974.773 331.112 950.862 355.404 932.929 386.796C914.996 417.44 906.03 454.064 906.03 496.667C906.03 538.523 914.996 575.521 932.929 607.661C950.862 639.053 974.773 663.344 1004.66 680.535C1034.55 697.726 1068.55 706.321 1106.66 706.321Z" fill="white"/>
<path d="M418.065 802.738C357.541 802.738 301.873 793.022 251.063 773.588C200.253 753.408 156.167 725.379 118.807 689.503C81.4461 652.879 52.3048 610.275 31.3829 561.692C10.461 513.11 0 459.668 0 401.369C0 343.07 10.461 289.628 31.3829 241.046C52.3048 192.463 81.4461 150.233 118.807 114.357C156.914 77.7325 201.374 49.704 252.184 30.2708C302.994 10.0903 359.035 0 420.306 0C482.325 0 539.113 10.0903 590.671 30.2708C642.228 50.4514 687.917 86.4341 706.233 106.714L636.742 176.225C612.414 154.407 585.067 136.406 546.959 122.205C509.598 107.256 468.875 99.7817 424.79 99.7817C379.957 99.7817 338.113 107.256 299.258 122.205C261.15 137.153 227.9 158.081 199.505 184.988C171.859 211.896 150.19 244.035 134.498 281.407C119.554 318.031 112.082 358.018 112.082 401.369C112.082 443.972 119.554 483.96 134.498 521.331C150.19 557.955 171.859 590.095 199.505 617.75C227.9 644.657 261.15 665.585 299.258 680.534C337.366 695.482 378.836 702.956 423.669 702.956C465.513 702.956 505.489 696.603 543.596 683.897C582.451 670.443 618.318 648.394 651.195 617.75L715.082 702.956C676.227 735.843 630.646 760.882 578.342 778.073C526.784 794.516 473.359 802.738 418.065 802.738ZM607.483 688.382V537.906C607.483 537.906 607.38 522.801 598.152 511.052C588.924 499.304 564.595 490.871 564.595 490.871H715.082V702.956L607.483 688.382Z" fill="white"/>
</mask>
<g mask="url(#mask0_2013_841)">
<path opacity="0.8" d="M976.648 1572.39C1479.72 1572.39 1887.5 1163.18 1887.46 658.397C1887.42 153.612 1479.57 -255.597 976.499 -255.597C473.431 -255.597 65.6465 153.612 65.6874 658.397C65.7283 1163.18 473.579 1572.39 976.648 1572.39Z" fill="url(#paint0_linear_2013_841)"/>
<path d="M2163.39 885.745C2614.37 885.745 2979.93 518.905 2979.9 66.3839C2979.86 -386.137 2614.24 -752.978 2163.25 -752.978C1712.27 -752.978 1346.71 -386.137 1346.75 66.3839C1346.78 518.905 1712.41 885.745 2163.39 885.745Z" fill="url(#paint1_linear_2013_841)"/>
<path d="M155.818 1975.7C720.451 1975.7 1178.14 1516.42 1178.09 949.858C1178.05 383.299 720.284 -75.9883 155.652 -75.9883C-408.981 -75.9883 -866.669 383.299 -866.623 949.858C-866.577 1516.42 -408.815 1975.7 155.818 1975.7Z" fill="url(#paint2_linear_2013_841)"/>
</g>
</g>
<g filter="url(#filter1_d_2013_841)">
<path d="M589.5 397C476.7 382.6 429.833 278.333 420.5 228C402.9 346 303.167 389.833 255.5 397C371.5 419.4 413.833 519 420.5 566C438.9 458.8 540.833 408.667 589.5 397Z" fill="#B5EAED"/>
</g>
</g>
<defs>
<filter id="filter0_i_2013_841" x="0" y="0" width="2500" height="1020" filterUnits="userSpaceOnUse" color-interpolation-filters="sRGB">
<feFlood flood-opacity="0" result="BackgroundImageFix"/>
<feBlend mode="normal" in="SourceGraphic" in2="BackgroundImageFix" result="shape"/>
<feColorMatrix in="SourceAlpha" type="matrix" values="0 0 0 0 0 0 0 0 0 0 0 0 0 0 0 0 0 0 127 0" result="hardAlpha"/>
<feOffset dy="2"/>
<feGaussianBlur stdDeviation="2.5"/>
<feComposite in2="hardAlpha" operator="arithmetic" k2="-1" k3="1"/>
<feColorMatrix type="matrix" values="0 0 0 0 1 0 0 0 0 0.901961 0 0 0 0 0.678431 0 0 0 0.7 0"/>
<feBlend mode="normal" in2="shape" result="effect1_innerShadow_2013_841"/>
</filter>
<filter id="filter1_d_2013_841" x="187.5" y="160" width="470" height="474" filterUnits="userSpaceOnUse" color-interpolation-filters="sRGB">
<feFlood flood-opacity="0" result="BackgroundImageFix"/>
<feColorMatrix in="SourceAlpha" type="matrix" values="0 0 0 0 0 0 0 0 0 0 0 0 0 0 0 0 0 0 127 0" result="hardAlpha"/>
<feOffset/>
<feGaussianBlur stdDeviation="34"/>
<feComposite in2="hardAlpha" operator="out"/>
<feColorMatrix type="matrix" values="0 0 0 0 1 0 0 0 0 0.901961 0 0 0 0 0.678431 0 0 0 0.4 0"/>
<feBlend mode="normal" in2="BackgroundImageFix" result="effect1_dropShadow_2013_841"/>
<feBlend mode="normal" in="SourceGraphic" in2="effect1_dropShadow_2013_841" result="shape"/>
</filter>
<linearGradient id="paint0_linear_2013_841" x1="-153.654" y1="-1652.75" x2="1338.68" y2="705.95" gradientUnits="userSpaceOnUse">
<stop stop-color="#6225C7"/>
<stop offset="1" stop-color="#A3E5E8"/>
</linearGradient>
<linearGradient id="paint1_linear_2013_841" x1="1386.39" y1="65.6268" x2="2548.33" y2="65.6206" gradientUnits="userSpaceOnUse">
<stop stop-color="#966DD9"/>
<stop offset="1" stop-color="#FFE6AD"/>
</linearGradient>
<linearGradient id="paint2_linear_2013_841" x1="-6.90308" y1="1340.16" x2="494.041" y2="-215.794" gradientUnits="userSpaceOnUse">
<stop offset="0.146406" stop-color="#FFD984"/>
<stop offset="0.827629" stop-color="#A3E5E8"/>
</linearGradient>
<clipPath id="clip0_2013_841">
<rect width="2500" height="1018" fill="white"/>
</clipPath>
</defs>
</svg>
